<svg viewBox="0 0 512 512" xmlns="http://www.w3.org/2000/svg"><style>@media (prefers-color-scheme:dark){g{stroke:#fff}}</style><g stroke="#000" fill="none" stroke-width="16" stroke-linecap="round" transform="rotate(-45 256 256)"><path d="M182 318l124-124"/><circle cx="199" cy="212" r="26"/><circle cx="288" cy="300" r="26"/><circle cx="444" cy="256" r="26"/><path d="M444 256q69 22 125 27a26 26 0 100-54l-16 1"/><path d="M28 143a20 20 0 0120-20h346q16 0 35 18l86 86q21 29 0 58l-86 86q-19 18-35 18H48a20 20 0 01-20-20z"/></g></svg>